<?xml version="1.0" standalone="no"?><!DOCTYPE svg PUBLIC "-//W3C//DTD SVG 1.1//EN" "http://www.w3.org/Graphics/SVG/1.1/DTD/svg11.dtd"><svg t="1533900856756" class="icon" style="" viewBox="0 0 1024 1024" version="1.1" xmlns="http://www.w3.org/2000/svg" p-id="1020" xmlns:xlink="http://www.w3.org/1999/xlink" width="50" height="50"><defs><style type="text/css"></style></defs><path d="M507.982525 404.512246l-0.818954-124.071578a45.144857 45.144857 0 0 0-90.340898 0.614216l0.870139 123.457362H301.094192a45.144857 45.144857 0 1 0 0 90.289713h117.212836l0.870139 131.646906a45.144857 45.144857 0 1 0 90.340897-0.614215l-0.921323-131.032691h125.914226a45.144857 45.144857 0 0 0 0-90.289713H507.982525zM213.46608 696.059982a342.885934 342.885934 0 0 1 0-483.694892 339.968409 339.968409 0 0 1 482.005798 0 342.885934 342.885934 0 0 1 0 483.694892 339.968409 339.968409 0 0 1-482.005798 0z m791.007498 215.487354l-185.03249-184.674198a455.79926 455.79926 0 0 0-43.353394-593.537139 454.161352 454.161352 0 0 0-642.879137 0 455.696891 455.696891 0 0 0 0 643.698091 454.212536 454.212536 0 0 0 593.383585 42.995101l184.776567 184.469459c25.745876 25.592322 67.461362 25.592322 93.156053 0a65.618714 65.618714 0 0 0 0-92.90013z" p-id="1021"></path></svg>